# xmcd
#
# Track frame offsets:
#	150
#	13158
#	27714
#	42921
#	60858
#	74039
#	95889
#	102716
#	120622
#	140757
#	154504
#	170557
#	188813
#	209463
#	222400
#	233370
#	244830
#	271285
#	284944
#	295891
#
# Disc length: 4195 seconds
#
# Revision: 1
# Processed by: cddbd v1.5.2PL0 Copyright (c) Steve Scherf et al.
# Submitted via: audiograbber 1.83.01
#
DISCID=43106114
DTITLE=Wim Sonneveld - Zijn 100 Beste Liedjes van A tot Z
DYEAR=2010
DGENRE=Hollands
TTITLE0=Wim Sonneveld - Luchtkastelen
TTITLE1=Wim Sonneveld - Loflied op Dora
TTITLE2=Wim Sonneveld - Matelot
TTITLE3=Wim Sonneveld - Mijn discotheek
TTITLE4=Wim Sonneveld - Ma belle Marguerite
TTITLE5=Wim Sonneveld - Margootje
TTITLE6=Wim Sonneveld - Moeke d'r staait 'n vrijer bie de deur
TTITLE7=Wim Sonneveld - Moeder
TTITLE8=Wim Sonneveld - Moeder ik wil bij de reveu
TTITLE9=Wim Sonneveld - Marjolijne
TTITLE10=Wim Sonneveld - Mooi Amsterdam
TTITLE11=Wim Sonneveld - Naar buiten
TTITLE12=Wim Sonneveld - Nikkelen Nelis
TTITLE13=Wim Sonneveld - Niemand dan wij
TTITLE14=Wim Sonneveld - Op de step
TTITLE15=Wim Sonneveld - Onze kat
TTITLE16=Wim Sonneveld - Ome Thijs
TTITLE17=Wim Sonneveld - Parlez moi d'amour/Doe het doek maar dicht
TTITLE18=Wim Sonneveld - Poen
TTITLE19=Wim Sonneveld - Rob
EXTD=
EXTT0=
EXTT1=
EXTT2=
EXTT3=
EXTT4=
EXTT5=
EXTT6=
EXTT7=
EXTT8=
EXTT9=
EXTT10=
EXTT11=
EXTT12=
EXTT13=
EXTT14=
EXTT15=
EXTT16=
EXTT17=
EXTT18=
EXTT19=
PLAYORDER=
